Idioma: Español latino
Subtitulos: Si forzados

Película: Viaje al centro de la Tierra 2: La isla misteriosa. Título original: Journey 2: The mysterious island. Dirección: Brad Peyton. País: USA. Año: 2012. Duración: 94 min. Género: Aventuras, fantástico, familiar. Interpretación: Dwayne Johnson (Hank), Josh Hutcherson (Sean), Vanessa Hudgens (Kailani), Michael Caine (Alexander), Luis Guzmán (Gabato), Kristin Davis (Liz). Guion: Brian Gunn y Mark Gunn; basado en un argumento de Brian Gunn, Mark Gunn y Richard Outten. Producción: Beau Flynn, Tripp Vinson y Charlotte Huggins. Música: Andrew Lockington. Fotografía: David Tattersall. Montaje: David Rennie. Diseño de producción: Bill Boes. Vestuario: Denise Wingate. Distribuidora: Warner Bros. Pictures International España. Estreno en USA: 10 Febrero 2012. Estreno en España: 17 Febrero 2012. Calificación por edades: Apta para todos los públicos.


Video
ID                                       : 0
Format                                   : MPEG-4 Visual
Format profile                           : Simple@L3
Format settings, BVOP                    : No
Format settings, QPel                    : No
Format settings, GMC                     : No warppoints
Format settings, Matrix                  : Default (H.263)
Codec ID                                 : XVID
Codec ID/Hint                            : XviD
Duration                                 : 1h 34mn
Bit rate                                 : 1 088 Kbps
Width                                    : 600 pixels
Height                                   : 338 pixels
Display aspect ratio                     : 16:9
Frame rate                               : 23.976 fps
Color space                              : YUV
Chroma subsampling                       : 4:2:0
Bit depth                                : 8 bits
Scan type                                : Progressive
Compression mode                         : Lossy
Bits/(Pixel*Frame)                       : 0.224
Stream size                              : 733 MiB (91%)
Writing library                          : XviD 1.2.1 (UTC 2008-12-04)

Audio
ID                                       : 1
Format                                   : MPEG Audio
Format version                           : Version 1
Format profile                           : Layer 3
Mode                                     : Joint stereo
Mode extension                           : MS Stereo
Codec ID                                 : 55
Codec ID/Hint                            : MP3
Duration                                 : 1h 34mn
Bit rate mode                            : Constant
Bit rate                                 : 96.0 Kbps
Channel(s)                               : 2 channels
Sampling rate                            : 48.0 KHz
Compression mode                         : Lossy
Stream size                              : 64.7 MiB (8%)
Alignment                                : Split accross interleaves
Interleave, duration                     : 42 ms (1.00 video frame)
Interleave, preload duration             : 500 ms
